<svg width="400" height="400" viewBox="0 0 317 317" fill="none" xmlns="http://www.w3.org/2000/svg">
<path opacity="0.7" d="M43.0676 105.935C43.0676 105.935 25.3917 151.583 50.2318 197.548C75.072 243.513 126.236 267.795 167.186 288.559C208.136 309.322 250.658 299.21 270.864 265.202C291.069 231.194 263.357 206.919 263.319 158.424C263.281 109.929 270.579 97.0908 244.299 56.1217C218.02 15.1526 153.599 6.08009 104.883 36.4677C56.1661 66.8553 43.0676 105.935 43.0676 105.935Z" fill="white"/>
<path d="M256.237 293.732C256.237 293.732 312.917 216.137 277.793 156.497C242.67 96.8562 172.923 137.787 159.641 82.1284C146.359 26.4695 97.8769 17.34 51.8992 86.9468C5.92155 156.554 16.9214 253.34 41.267 293.732H256.237Z" fill="#1D458A"/>
<path opacity="0.7" d="M256.237 293.732C256.237 293.732 312.917 216.137 277.793 156.497C242.67 96.8562 172.923 137.787 159.641 82.1284C146.359 26.4695 97.8769 17.34 51.8992 86.9468C5.92155 156.554 16.9214 253.34 41.267 293.732H256.237Z" fill="white"/>
<path d="M32.7524 293.732H285.439" stroke="#263238" stroke-linecap="round" stroke-linejoin="round"/>
<path d="M57.8399 90.9283H73.6581V84.5756H57.8399V90.9283Z" stroke="#263238" stroke-linecap="round" stroke-linejoin="round"/>
<path d="M70.5071 98.1939H86.3254V91.8412H70.5071V98.1939Z" stroke="#263238" stroke-linecap="round" stroke-linejoin="round"/>
<path d="M106.816 139.391H122.635V133.039H106.816V139.391Z" stroke="#263238" stroke-linecap="round" stroke-linejoin="round"/>
<path d="M98.9104 147.779H114.729V141.426H98.9104V147.779Z" stroke="#263238" stroke-linecap="round" stroke-linejoin="round"/>
<path d="M49.9275 199.063H65.7458V192.711H49.9275V199.063Z" stroke="#263238" stroke-linecap="round" stroke-linejoin="round"/>
<path d="M58.5943 206.969H74.4126V200.617H58.5943V206.969Z" stroke="#263238" stroke-linecap="round" stroke-linejoin="round"/>
<path d="M150.733 214.52H166.552V208.168H150.733V214.52Z" stroke="#263238" stroke-linecap="round" stroke-linejoin="round"/>
<path d="M142.371 222.978H158.189V216.625H142.371V222.978Z" stroke="#263238" stroke-linecap="round" stroke-linejoin="round"/>
<path d="M54.9297 256.18H70.748V249.828H54.9297V256.18Z" stroke="#263238" stroke-linecap="round" stroke-linejoin="round"/>
<path d="M67.6541 199.063H83.4724V192.711H67.6541V199.063Z" stroke="#263238" stroke-linecap="round" stroke-linejoin="round"/>
<path d="M142.847 174.249C127.466 174.42 111.616 174.42 96.7167 174.249" stroke="#263238" stroke-linecap="round" stroke-linejoin="round"/>
<path d="M149.18 174.249H145.313" stroke="#263238" stroke-linecap="round" stroke-linejoin="round"/>
<path d="M274.776 264.067C259.395 264.239 243.545 264.239 228.646 264.067" stroke="#263238" stroke-linecap="round" stroke-linejoin="round"/>
<path d="M281.109 264.067H277.242" stroke="#263238" stroke-linecap="round" stroke-linejoin="round"/>
<path d="M209.055 70.5642C193.674 70.7354 177.824 70.7354 162.925 70.5642" stroke="#263238" stroke-linecap="round" stroke-linejoin="round"/>
<path d="M215.389 70.5642H211.521" stroke="#263238" stroke-linecap="round" stroke-linejoin="round"/>
<path d="M72.4408 117.214C65.6782 117.328 58.9303 117.351 52.1972 117.284" stroke="#263238" stroke-linecap="round" stroke-linejoin="round"/>
<path d="M202.734 251.324C195.971 251.438 189.226 251.461 182.497 251.394" stroke="#263238" stroke-linecap="round" stroke-linejoin="round"/>
<path d="M70.038 239.83H72.2189" stroke="#263238" stroke-linecap="round" stroke-linejoin="round"/>
<path d="M47.0555 239.83H67.559" stroke="#263238" stroke-linecap="round" stroke-linejoin="round"/>
<path d="M124.429 53.5667H126.61" stroke="#263238" stroke-linecap="round" stroke-linejoin="round"/>
<path d="M101.44 53.5667H121.944" stroke="#263238" stroke-linecap="round" stroke-linejoin="round"/>
<path d="M263.541 232.703H247.723V239.056H263.541V232.703Z" stroke="#263238" stroke-linecap="round" stroke-linejoin="round"/>
<path d="M250.874 225.438H235.056V231.79H250.874V225.438Z" stroke="#263238" stroke-linecap="round" stroke-linejoin="round"/>
<path d="M214.565 184.24H198.746V190.593H214.565V184.24Z" stroke="#263238" stroke-linecap="round" stroke-linejoin="round"/>
<path d="M222.471 175.853H206.652V182.205H222.471V175.853Z" stroke="#263238" stroke-linecap="round" stroke-linejoin="round"/>
<path d="M271.453 124.568H255.635V130.921H271.453V124.568Z" stroke="#263238" stroke-linecap="round" stroke-linejoin="round"/>
<path d="M262.787 116.662H246.968V123.015H262.787V116.662Z" stroke="#263238" stroke-linecap="round" stroke-linejoin="round"/>
<path d="M170.654 109.111H154.835V115.464H170.654V109.111Z" stroke="#263238" stroke-linecap="round" stroke-linejoin="round"/>
<path d="M179.01 100.654H163.192V107.006H179.01V100.654Z" stroke="#263238" stroke-linecap="round" stroke-linejoin="round"/>
<path d="M229.54 53.8203H213.721V60.1729H229.54V53.8203Z" stroke="#263238" stroke-linecap="round" stroke-linejoin="round"/>
<path d="M253.727 124.568H237.909V130.921H253.727V124.568Z" stroke="#263238" stroke-linecap="round" stroke-linejoin="round"/>
<path d="M178.541 149.383C193.915 149.212 209.765 149.212 224.671 149.383" stroke="#263238" stroke-linecap="round" stroke-linejoin="round"/>
<path d="M172.207 149.383H176.068" stroke="#263238" stroke-linecap="round" stroke-linejoin="round"/>
<path d="M248.94 206.418C255.703 206.304 262.451 206.278 269.184 206.342" stroke="#263238" stroke-linecap="round" stroke-linejoin="round"/>
<path d="M251.343 83.8021H249.162" stroke="#263238" stroke-linecap="round" stroke-linejoin="round"/>
<path d="M274.332 83.8021H253.822" stroke="#263238" stroke-linecap="round" stroke-linejoin="round"/>
<path d="M224.258 130.604L213.658 122.552C213.658 122.552 200.826 98.27 200.097 97.3824L196.255 102.347C196.255 102.347 203.495 123.491 204.566 126.439C205.638 129.387 210.044 132.715 212.174 134.979C214.305 137.242 222.756 143.189 222.756 143.189L224.258 130.604Z" fill="white" stroke="#263238" stroke-linecap="round" stroke-linejoin="round"/>
<path d="M171.472 201.796H161.702C158.76 201.796 155.929 200.67 153.791 198.649C151.652 196.629 150.368 193.866 150.201 190.929L149.668 181.546H183.499L182.966 190.929C182.801 193.866 181.518 196.628 179.38 198.649C177.243 200.67 174.413 201.796 171.472 201.796Z" fill="#263238"/>
<path d="M217.494 113.6C217.495 106.811 216.138 100.09 213.503 93.8337C210.868 87.5769 207.008 81.9105 202.15 77.1679C197.292 72.4252 191.535 68.7023 185.216 66.218C178.898 63.7338 172.147 62.5386 165.36 62.7026C137.832 63.3366 115.61 86.1606 115.673 113.721C115.689 126.736 120.708 139.248 129.691 148.667C134.917 154.075 138.606 160.778 140.38 168.086L140.716 169.519H192.457L192.654 168.676C194.498 161.06 198.314 154.063 203.717 148.388C212.58 138.975 217.508 126.529 217.494 113.6Z" fill="white"/>
<path opacity="0.4" d="M165.36 62.7026C137.832 63.3366 115.61 86.1606 115.673 113.721C115.689 126.736 120.708 139.248 129.691 148.667C134.917 154.075 138.606 160.778 140.38 168.086L140.716 169.519H192.457L192.654 168.676C194.498 161.058 198.316 154.061 203.723 148.388C210.578 141.068 215.119 131.886 216.774 121.995C218.43 112.104 217.126 101.944 213.028 92.7909C208.93 83.6377 202.22 75.899 193.739 70.5461C185.259 65.1931 175.386 62.4645 165.36 62.7026ZM166.419 154.696C157.429 154.695 148.643 152.028 141.169 147.033C133.695 142.038 127.871 134.939 124.431 126.634C120.992 118.328 120.093 109.19 121.848 100.373C123.602 91.5572 127.931 83.4591 134.288 77.1033C140.645 70.7474 148.744 66.4192 157.56 64.6659C166.377 62.9127 175.515 63.8132 183.82 67.2535C192.125 70.6938 199.223 76.5194 204.217 83.9937C209.211 91.468 211.876 100.255 211.876 109.245C211.876 115.214 210.701 121.125 208.416 126.64C206.132 132.154 202.783 137.165 198.562 141.386C194.341 145.606 189.329 148.954 183.814 151.238C178.299 153.522 172.388 154.697 166.419 154.696Z" fill="#1D458A"/>
<path d="M217.494 113.6C217.495 106.811 216.138 100.09 213.503 93.8337C210.868 87.5769 207.008 81.9105 202.15 77.1679C197.292 72.4252 191.535 68.7023 185.216 66.218C178.898 63.7338 172.147 62.5386 165.36 62.7026C137.832 63.3366 115.61 86.1606 115.673 113.721C115.689 126.736 120.708 139.248 129.691 148.667C134.917 154.075 138.606 160.778 140.38 168.086L140.716 169.519H192.457L192.654 168.676C194.498 161.06 198.314 154.063 203.717 148.388C212.58 138.975 217.508 126.529 217.494 113.6V113.6Z" stroke="#263238" stroke-miterlimit="10"/>
<path d="M149.212 195.221H183.961C186.791 193.657 189.176 191.4 190.896 188.662C192.616 185.925 193.613 182.796 193.795 179.568L194.676 163.99H138.497L139.372 179.568C139.556 182.796 140.555 185.925 142.276 188.662C143.997 191.399 146.383 193.656 149.212 195.221Z" fill="#1D458A" stroke="#263238" stroke-linecap="round" stroke-linejoin="round"/>
<path d="M194.416 169.646L139.797 174.052C139.246 174.098 138.7 173.923 138.278 173.566C137.856 173.21 137.593 172.7 137.546 172.15C137.502 171.6 137.678 171.055 138.034 170.633C138.39 170.211 138.898 169.948 139.448 169.899L194.08 165.474C194.631 165.428 195.177 165.603 195.599 165.96C196.021 166.316 196.284 166.826 196.331 167.376C196.355 167.651 196.325 167.928 196.242 168.191C196.158 168.454 196.024 168.698 195.846 168.909C195.668 169.12 195.45 169.294 195.205 169.42C194.959 169.547 194.691 169.623 194.416 169.646Z" fill="#1D458A" stroke="#263238" stroke-linecap="round" stroke-linejoin="round"/>
<path d="M194.403 177.913L140.368 182.275C139.818 182.317 139.273 182.141 138.852 181.785C138.431 181.43 138.167 180.922 138.117 180.373C138.073 179.823 138.248 179.278 138.604 178.856C138.961 178.434 139.469 178.171 140.019 178.122L194.067 173.716C194.618 173.672 195.163 173.847 195.584 174.204C196.006 174.56 196.27 175.068 196.318 175.618C196.347 175.895 196.32 176.175 196.239 176.442C196.157 176.708 196.024 176.956 195.845 177.17C195.667 177.383 195.447 177.559 195.199 177.687C194.952 177.815 194.681 177.892 194.403 177.913Z" fill="#1D458A" stroke="#263238" stroke-linecap="round" stroke-linejoin="round"/>
<path d="M192.736 186.358L142.942 190.377C142.392 190.42 141.847 190.244 141.426 189.888C141.005 189.532 140.741 189.025 140.691 188.475C140.645 187.924 140.82 187.377 141.176 186.954C141.533 186.531 142.042 186.267 142.593 186.218L192.387 182.199C192.937 182.157 193.481 182.333 193.903 182.688C194.324 183.044 194.588 183.552 194.638 184.101C194.682 184.652 194.507 185.198 194.151 185.62C193.795 186.043 193.286 186.308 192.736 186.358Z" fill="#1D458A" stroke="#263238" stroke-linecap="round" stroke-linejoin="round"/>
<path d="M206.17 283.398C206.17 283.398 207.324 290.448 206.17 293.739H182.852C182.852 293.739 181.869 291.272 182.852 289.713C183.835 288.153 191.227 287.272 193.528 285.167C195.29 283.418 196.884 281.507 198.29 279.461L206.17 283.398Z" fill="#263238" stroke="#263238" stroke-miterlimit="10"/>
<path d="M182.414 292.49H206.481L206.684 293.732H182.414V292.49Z" fill="white" stroke="#263238" stroke-linecap="round" stroke-linejoin="round"/>
<path d="M200.566 282.536C200.566 282.536 198.372 283.062 198.125 283.17C197.878 283.278 195.747 286.536 193.611 287.113C191.474 287.69 189.338 287.576 189.667 288.616" stroke="white" stroke-linecap="round" stroke-linejoin="round"/>
<path d="M195.709 282.536L198.207 284.374" stroke="white" stroke-linecap="round" stroke-linejoin="round"/>
<path d="M194.549 284.146L196.958 285.915" stroke="white" stroke-linecap="round" stroke-linejoin="round"/>
<path d="M193.009 285.56L195.101 287.582" stroke="white" stroke-linecap="round" stroke-linejoin="round"/>
<path d="M190.897 286.593L191.804 288.59" stroke="white" stroke-linecap="round" stroke-linejoin="round"/>
<path d="M206.551 286.568C203.84 286.342 201.111 286.68 198.537 287.563C194.346 289.034 192.901 290.315 193.009 290.702C193.116 291.088 193.611 292.23 193.611 292.23H195.709C195.709 292.23 194.949 290.892 195.075 290.702C195.202 290.511 202.385 287.716 206.525 288.21L206.551 286.568Z" fill="white"/>
<path d="M240.235 293.732C240.235 293.732 241.136 290.302 240.083 289.028C238.181 286.746 240.311 284.831 238.416 284.038L237.623 284.958C237.471 284.026 237.915 281.185 234.402 280.811C230.155 280.367 230.072 283.455 229.844 284.476L229.914 283.049C228.101 283.049 229.039 284.856 226.294 287.817C225.575 288.614 225.028 289.55 224.687 290.568C224.347 291.586 224.22 292.663 224.316 293.732H240.235Z" fill="#263238" stroke="#263238" stroke-miterlimit="10"/>
<path d="M224.297 292.49H240.59L240.235 293.732H224.316L224.297 292.49Z" fill="white" stroke="#263238" stroke-linecap="round" stroke-linejoin="round"/>
<path d="M229.508 287.671C229.508 287.671 234.859 285.902 237.439 288.115" stroke="white" stroke-linecap="round" stroke-linejoin="round"/>
<path d="M229.508 286.505C229.508 286.505 234.212 285.015 237.439 287.005" stroke="white" stroke-linecap="round" stroke-linejoin="round"/>
<path d="M229.806 285.351C229.806 285.351 234.244 283.683 237.458 285.985" stroke="white" stroke-linecap="round" stroke-linejoin="round"/>
<path d="M226.294 287.836L226.826 288.356C226.898 288.427 226.943 288.521 226.953 288.621C226.964 288.722 226.939 288.823 226.883 288.907C226.175 289.975 225.796 291.227 225.793 292.509H225.013C225.187 291.258 225.569 290.045 226.141 288.92L225.742 288.514L226.294 287.836Z" fill="white"/>
<path d="M210.368 250.246C210.368 250.246 206.906 256.13 201.054 254.874" stroke="#263238" stroke-linecap="round" stroke-linejoin="round"/>
<path d="M214.026 183.277L211.756 188.076C205.521 201.462 200.464 215.365 196.641 229.628C196.502 230.155 193.535 240.66 195.912 266.825L194.556 271.415L196.039 279.023C196.039 279.023 193.807 282.244 193.89 283.303C193.89 283.303 199.393 284.33 201.232 285.313C202.658 286.08 206.938 290.321 206.938 290.321C208.155 290.068 208.256 285.148 208.256 285.148C208.256 285.148 210.792 241.478 211.534 239.589C212.276 237.699 216.733 229.597 223.701 211.027C223.701 211.027 223.859 236.964 225.723 243.526C227.378 249.365 225.419 265.716 225.419 265.716L226.535 283.899C226.535 283.899 222.616 287.969 225.793 289.066C225.793 289.066 227.917 284.977 233.971 284.051C237.046 283.576 240.882 289.041 240.882 289.041C242.226 288.609 240.311 281.743 240.311 281.743C244.597 249.378 241.434 255.236 242.289 239.411C242.841 229.267 245.719 185.813 242.34 182.288L214.026 183.277Z" fill="#757575"/>
<path opacity="0.2" d="M243.976 198.233C228.823 199.425 215.699 194.467 210.013 191.893C211.09 189.465 211.756 188.089 211.756 188.089L214.026 183.289L242.353 182.262C243.576 183.524 243.976 189.997 243.976 198.233Z" fill="black"/>
<path opacity="0.2" d="M223.593 211.331C216.695 229.666 212.27 237.693 211.547 239.563C211.128 240.647 210.114 255.477 209.328 267.928C208.415 256.605 207.483 244.654 207.426 242.308C207.255 237.642 210.627 231.239 211.135 229.584C211.642 227.929 210.501 226.141 210.501 226.141L216.568 218.495C216.365 215.896 219.573 204.547 219.573 204.547C221.456 206.38 223.168 210.222 223.593 211.331Z" fill="black"/>
<path d="M214.026 183.277L211.756 188.076C205.521 201.462 200.464 215.365 196.641 229.628C196.502 230.155 193.535 240.66 195.912 266.825L194.556 271.415L196.039 279.023C196.039 279.023 193.807 282.244 193.89 283.303C193.89 283.303 199.393 284.33 201.232 285.313C202.658 286.08 206.938 290.321 206.938 290.321C208.155 290.068 208.256 285.148 208.256 285.148C208.256 285.148 210.792 241.478 211.534 239.589C212.276 237.699 216.733 229.597 223.701 211.027C223.701 211.027 223.859 236.964 225.723 243.526C227.378 249.365 225.419 265.716 225.419 265.716L226.535 283.899C226.535 283.899 222.616 287.969 225.793 289.066C225.793 289.066 227.917 284.977 233.971 284.051C237.046 283.576 240.882 289.041 240.882 289.041C242.226 288.609 240.311 281.743 240.311 281.743C244.597 249.378 241.434 255.236 242.289 239.411C242.841 229.267 245.719 185.813 242.34 182.288L214.026 183.277Z" stroke="#263238" stroke-linecap="round" stroke-linejoin="round"/>
<path d="M223.713 211.002C223.713 211.002 220.252 204.319 217.297 202.455" stroke="#263238" stroke-linecap="round" stroke-linejoin="round"/>
<path d="M216.004 200.293C216.004 200.293 226.522 203.463 230.167 204.097" stroke="#263238" stroke-linecap="round" stroke-linejoin="round"/>
<path d="M221.386 189.566C220.93 198.328 217.842 199.818 220.829 201.726C220.829 201.726 220.746 205.822 222.23 208.421" stroke="#263238" stroke-linecap="round" stroke-linejoin="round"/>
<path d="M239.817 186.212C239.817 186.212 238.549 199.672 242.714 202.202" stroke="#263238" stroke-linecap="round" stroke-linejoin="round"/>
<path d="M242.714 190.549C242.714 190.549 243.025 199.507 242.714 206.728C242.714 206.728 241.681 237.243 240.647 241.079C239.614 244.914 242.239 250.69 242.01 267.263" stroke="#263238" stroke-linecap="round" stroke-linejoin="round"/>
<path d="M232.773 280.228C233.757 280.017 234.783 280.153 235.677 280.615" stroke="#263238" stroke-linecap="round" stroke-linejoin="round"/>
<path d="M226.547 283.861C227.843 282.599 229.344 281.566 230.985 280.805" stroke="#263238" stroke-linecap="round" stroke-linejoin="round"/>
<path d="M228.278 213.119C230.605 215.719 234.282 220.632 238.054 221.051" stroke="#263238" stroke-linecap="round" stroke-linejoin="round"/>
<path d="M224.702 208.871C225.412 209.778 226.154 210.659 226.902 211.534" stroke="#263238" stroke-linecap="round" stroke-linejoin="round"/>
<path d="M228.012 239.373C228.012 239.373 233.293 246.563 236.19 246.981" stroke="#263238" stroke-linecap="round" stroke-linejoin="round"/>
<path d="M221.799 209.702C221.799 209.702 212.396 235.899 209.119 238.485C209.119 238.485 208.745 257.746 208.643 264.479C208.542 271.213 206.988 280.152 206.988 280.152" stroke="#263238" stroke-linecap="round" stroke-linejoin="round"/>
<path d="M196.952 279.955C196.952 279.955 200.572 281.223 202.335 282.003C203.415 282.525 204.265 283.428 204.719 284.539" stroke="#263238" stroke-linecap="round" stroke-linejoin="round"/>
<path d="M206.113 229.039C211.185 225.869 217.823 221.913 220.505 216.327" stroke="#263238" stroke-linecap="round" stroke-linejoin="round"/>
<path d="M201.713 231.651C202.671 231.125 203.615 230.573 204.541 230.009" stroke="#263238" stroke-linecap="round" stroke-linejoin="round"/>
<path d="M217.627 193.097C220.34 193.059 223.333 192.698 225.634 191.195" stroke="#263238" stroke-linecap="round" stroke-linejoin="round"/>
<path d="M213.309 192.844C214.089 192.952 214.869 193.021 215.655 193.059" stroke="#263238" stroke-linecap="round" stroke-linejoin="round"/>
<path d="M227.371 136.05C227.371 136.05 243.336 131.517 252.516 136.43C254.798 137.648 260.016 141.61 259.832 146.359C259.648 151.108 244.54 173.215 244.724 176.157C244.908 179.099 244.724 186.707 243.608 187.227C242.492 187.746 218.248 188.45 212.263 186.91C209.873 186.276 214.571 174.984 214.571 174.984C214.571 174.984 219.148 150.48 227.371 136.05Z" fill="#1D458A" stroke="#263238" stroke-linecap="round" stroke-linejoin="round"/>
<path d="M250.1 135.207C250.1 135.207 240.007 139.245 236.698 135.023C237.259 135.055 237.82 134.945 238.328 134.702C238.836 134.459 239.274 134.092 239.601 133.635C240.123 132.832 240.406 131.897 240.419 130.94C240.47 130.192 238.986 120.593 239.601 119.731C248.902 106.734 250.956 125.817 250.956 125.817C250.956 125.817 247.666 134.009 250.1 135.207Z" fill="white" stroke="#263238" stroke-linecap="round" stroke-linejoin="round"/>
<path d="M243.031 130.002C243.031 130.002 242.397 133.001 239.601 133.635C240.123 132.832 240.406 131.897 240.419 130.94C241.316 130.707 242.191 130.393 243.031 130.002Z" fill="#263238"/>
<path d="M251.907 131.821L241.472 134.592V140.013C241.472 140.013 238.441 147.589 238.536 148.819C238.631 150.049 241.472 199.437 241.472 199.437C241.472 199.437 249.948 198.803 253.01 193.541C253.01 193.541 251.78 174.394 253.01 171.243C253.81 168.887 254.275 166.431 254.392 163.946C254.392 163.946 262.375 149.028 260.599 144.476C258.824 139.924 253.283 135.492 253.283 135.492L251.907 131.821Z" fill="#263238"/>
<path d="M242.676 135.365C242.676 135.365 244.394 140.983 244.61 140.868C244.825 140.754 250.791 138.332 252.402 135.936" stroke="white" stroke-linecap="round" stroke-linejoin="round"/>
<path d="M239.1 134.199C238.948 133.983 232.456 130.002 232.456 130.002L229.115 130.889L224.182 127.808C224.182 127.808 219.186 143.024 219.332 146.543C219.478 150.061 214.153 169.544 213.373 177.235C213.373 177.235 219.713 164.732 220.619 162.551C221.526 160.37 224.468 145.687 226.902 142.263C229.337 138.84 235.03 134.586 235.03 134.586L239.1 134.199Z" fill="#263238"/>
<path d="M251.318 124.524C251.797 123.253 251.988 121.89 251.876 120.536C251.191 110.918 248.921 108.68 245.174 109.308C231.182 111.641 235.328 118.742 234.796 121.1C234.263 123.459 232.26 123.636 232.545 124.708C232.653 125.133 234.301 125.177 234.301 125.177L234.402 127.396L235.036 127.548C235.036 127.548 235.544 132.62 236.831 133.184C238.46 133.926 243.329 130.984 243.317 129.159" fill="white"/>
<path d="M251.318 124.524C251.797 123.253 251.988 121.89 251.876 120.536C251.191 110.918 248.921 108.68 245.174 109.308C231.182 111.641 235.328 118.742 234.796 121.1C234.263 123.459 232.26 123.636 232.545 124.708C232.653 125.133 234.301 125.177 234.301 125.177L234.402 127.396L235.036 127.548C235.036 127.548 235.544 132.62 236.831 133.184C238.46 133.926 243.329 130.984 243.317 129.159" stroke="#263238" stroke-linecap="round" stroke-linejoin="round"/>
<path d="M235.886 117.645C235.886 117.645 237.851 117.246 238.834 118.818" stroke="#263238" stroke-linecap="round" stroke-linejoin="round"/>
<path d="M236.704 120.555C236.774 121.024 237.034 121.367 237.274 121.329C237.515 121.291 237.655 120.885 237.585 120.422C237.515 119.959 237.255 119.61 237.015 119.648C236.774 119.687 236.634 120.092 236.704 120.555Z" fill="#263238"/>
<path d="M235.03 127.548C236.063 127.55 237.09 127.401 238.08 127.104" stroke="#263238" stroke-linecap="round" stroke-linejoin="round"/>
<path d="M237.655 127.244C237.655 127.244 236.843 128.372 236.114 128.372C235.385 128.372 235.341 127.808 235.341 127.808" stroke="#263238" stroke-linecap="round" stroke-linejoin="round"/>
<path d="M252.161 110.823C252.161 110.823 252.858 107.837 245.897 107.438C240.464 107.127 235.499 107.602 233.667 111.121C231.835 114.64 232.025 117.804 234.643 118.209C234.871 116.903 235.359 115.656 236.079 114.543C236.799 113.43 237.736 112.473 238.834 111.73C238.834 111.73 237.313 115.661 239.601 117.601C240.103 118.033 240.676 118.376 241.294 118.615C241.462 118.951 241.675 119.263 241.928 119.541C243.031 120.809 243.076 123.433 243.076 123.433L244.141 122.799C244.141 122.799 242.594 118.704 247.089 119.668C249.397 120.162 248.991 122.952 249.327 124.689C249.663 126.426 250.595 126.901 250.595 126.901C251.639 125.724 252.46 124.367 253.017 122.895C253.017 122.895 255.312 121.259 255.312 118.856C255.312 116.453 254.665 112.548 252.161 110.823Z" fill="#263238"/>
<path d="M244.61 119.737C244.61 119.737 246.068 117.493 247.361 117.442C248.655 117.391 249.523 121.88 248.338 123.624C247.152 125.367 245.986 125.95 245.447 125.431C245.291 125.262 245.176 125.06 245.11 124.841C245.044 124.621 245.029 124.389 245.066 124.163" fill="white"/>
<path d="M244.61 119.737C244.61 119.737 246.068 117.493 247.361 117.442C248.655 117.391 249.523 121.88 248.338 123.624C247.152 125.367 245.986 125.95 245.447 125.431C245.291 125.262 245.176 125.06 245.11 124.841C245.044 124.621 245.029 124.389 245.066 124.163" stroke="#263238" stroke-linecap="round" stroke-linejoin="round"/>
<path d="M227.606 137.439C229.183 135.695 230.602 133.815 231.847 131.821" stroke="white" stroke-linecap="round" stroke-linejoin="round"/>
<path d="M227.606 131.821C228.5 132.163 229.249 132.803 229.724 133.635" stroke="white" stroke-linecap="round" stroke-linejoin="round"/>
<path d="M224.182 127.808L218.958 125.614L217.189 122.92C214.336 127.459 213.004 132.789 213.385 138.136L216.289 139.987L220.252 148.99L224.182 127.808Z" fill="#263238"/>
<path d="M243.114 148.99C243.114 148.99 248.363 156.395 245.783 159.527C244.572 161.004 233.876 164.555 233.876 164.555L201.796 162.653L191.119 164.555L189.927 164.65C189.82 164.516 189.742 164.361 189.699 164.196C189.655 164.03 189.647 163.857 189.674 163.688C189.702 163.519 189.764 163.357 189.858 163.214C189.952 163.07 190.075 162.948 190.219 162.856C190.219 162.856 189.642 161.461 189.883 161.15C190.612 160.218 193.934 158.69 193.934 158.69C193.934 158.69 190.099 159.648 191.677 157.587C192.755 156.186 196.851 155.894 198.74 154.658C200.293 153.637 198.936 147.976 202.309 148.99C201.735 150.525 201.518 152.171 201.675 153.802C201.726 154.214 201.815 156.243 201.815 156.243C203.527 158.202 221.881 155.666 223.46 155.609C225.038 155.552 232.729 154.392 232.729 154.392L243.114 148.99Z" fill="white" stroke="#263238" stroke-linecap="round" stroke-linejoin="round"/>
<path d="M196.768 156.414C196.956 156.811 197.056 157.243 197.06 157.682C196.977 158.101 195.849 158.893 195.849 158.893C195.783 159.294 195.783 159.703 195.849 160.104C195.976 160.396 194.638 161.435 194.638 161.81C194.522 162.247 194.324 162.658 194.055 163.02" stroke="#263238" stroke-linecap="round" stroke-linejoin="round"/>
<path d="M190.2 162.875C190.701 163.255 192.837 161.144 194.036 161.042" stroke="#263238" stroke-linecap="round" stroke-linejoin="round"/>
<path d="M193.015 163.166C192.137 163.717 191.199 164.166 190.219 164.504" stroke="#263238" stroke-linecap="round" stroke-linejoin="round"/>
<path d="M242.188 148.889L243.006 147.494C243.006 147.494 245.161 148.413 245.745 147.494C246.328 146.574 252.852 143.569 254.107 143.652" stroke="white" stroke-linecap="round" stroke-linejoin="round"/>
<path d="M244.851 161.036C244.851 161.036 246.436 162.665 246.854 161.974C247.273 161.283 252.941 160.985 255.305 159.026" stroke="white" stroke-linecap="round" stroke-linejoin="round"/>
<path d="M243.342 167.642C243.342 167.896 247.526 181.02 249.194 182.858" stroke="white" stroke-linecap="round" stroke-linejoin="round"/>
<path d="M234.815 168.98C234.314 169.316 224.588 177.425 220.505 177.507" stroke="#263238" stroke-linecap="round" stroke-linejoin="round"/>
<path d="M227.606 146.27C227.606 146.746 230.484 150.676 231.847 151.761" stroke="#263238" stroke-linecap="round" stroke-linejoin="round"/>
<path d="M189.401 189.281C191.094 189.281 188.501 192.02 188.501 192.02C188.443 194.017 188.053 195.99 187.347 197.859L192.597 205.974L188.082 209.562L183.499 200.255C183.499 200.255 179.498 198.822 180.462 196.451C181.058 194.955 182.998 194.79 182.998 194.79C184.906 192.706 187.055 190.856 189.401 189.281Z" fill="white" stroke="#263238" stroke-linecap="round" stroke-linejoin="round"/>
<path d="M184.944 204.719C184.944 204.719 187.702 200.471 190.65 200.75L191.76 203.286C191.76 203.286 193.579 203.381 194.676 205.968C195.773 208.554 201.853 215.744 201.853 215.744L193.047 224.88C193.047 224.88 185.692 209.423 186.073 206.912L184.944 204.719Z" fill="#BFBFBF"/>
<path opacity="0.2" d="M184.944 204.719C184.944 204.719 187.702 200.471 190.65 200.75L191.76 203.286C191.76 203.286 193.579 203.381 194.676 205.968C195.773 208.554 201.853 215.744 201.853 215.744L193.047 224.88C193.047 224.88 185.692 209.423 186.073 206.912L184.944 204.719Z" fill="black"/>
<path d="M184.944 204.719C184.944 204.719 187.702 200.471 190.65 200.75L191.76 203.286C191.76 203.286 193.579 203.381 194.676 205.968C195.773 208.554 201.853 215.744 201.853 215.744L193.047 224.88C193.047 224.88 185.692 209.423 186.073 206.912L184.944 204.719Z" stroke="#263238" stroke-linecap="round" stroke-linejoin="round"/>
<path d="M206.551 182.966C206.551 182.966 195.411 184.608 197.396 197.472C199.38 210.336 198.138 212.143 198.252 217.443C198.366 222.743 201.853 224.886 201.853 224.886L204.573 215.699C204.573 215.699 203.216 217.443 203.666 210.672C204.116 203.901 204.23 195.215 204.23 195.215" fill="#1D458A"/>
<path opacity="0.2" d="M206.551 182.966C206.551 182.966 195.411 184.608 197.396 197.472C199.38 210.336 198.138 212.143 198.252 217.443C198.366 222.743 201.853 224.886 201.853 224.886L204.573 215.699C204.573 215.699 203.216 217.443 203.666 210.672C204.116 203.901 204.23 195.215 204.23 195.215" fill="black"/>
<path d="M206.551 182.966C206.551 182.966 195.411 184.608 197.396 197.472C199.38 210.336 198.138 212.143 198.252 217.443C198.366 222.743 201.853 224.886 201.853 224.886L204.573 215.699C204.573 215.699 203.216 217.443 203.666 210.672C204.116 203.901 204.23 195.215 204.23 195.215" stroke="#263238" stroke-linecap="round" stroke-linejoin="round"/>
<path d="M199.71 202.741C199.71 202.741 200.978 209.715 200.052 214.546" stroke="#263238" stroke-linecap="round" stroke-linejoin="round"/>
<path d="M175.143 212.01C174.195 210.487 173.531 208.805 173.183 207.045C173.887 206.126 173.488 201.853 173.513 201.422C173.538 200.991 171.237 198.835 170.343 195.824C169.759 196.362 169.405 197.104 169.354 197.897C169.411 199.165 170.026 200.122 169.798 200.338C168.587 201.479 165.411 200.135 164.447 199.792C162.317 199.044 161.277 200.154 162.355 201.339C162.735 201.758 163.553 201.454 163.483 202.481C163.413 203.508 163.249 202.62 163.794 204.275C164.339 205.93 164.143 206.456 165.385 207.286L168.6 209.442L171.18 214.926L175.143 212.01Z" fill="white" stroke="#263238" stroke-linecap="round" stroke-linejoin="round"/>
<path d="M201.339 253.061C201.339 253.061 205.777 246.499 216.828 246.132C227.879 245.764 227.333 252.364 227.333 252.364C227.333 252.364 233.077 260.79 232.405 267.377C231.733 273.964 223.098 279.835 223.098 279.835C223.098 279.835 240.736 283.962 242.752 283.106C244.768 282.251 248.864 291.012 247.285 292.978C245.707 294.943 195.836 291.583 195.836 291.583C195.836 291.583 190.872 285.744 190.65 281.661C190.428 277.578 201.637 261.918 201.333 261.17C201.029 260.422 201.339 253.061 201.339 253.061Z" fill="#263238"/>
<path d="M220.03 260.504C220.03 260.504 221.507 272.728 215.224 274.852L194.524 283.176C194.524 283.176 223.326 285.668 227.714 284.78C232.101 283.893 238.257 292.794 238.257 292.794H185.699C176.74 292.794 171.624 285.699 173.431 279.987C175.238 274.275 199.761 257.448 199.761 257.448C199.761 257.448 198.493 251.28 211.94 246.74C224.075 242.645 220.03 260.504 220.03 260.504Z" fill="#263238"/>
<path d="M224.277 243.653C224.277 243.653 227.447 248.566 226.319 249.682C226.319 249.682 213.576 245.136 200.528 255.584C200.287 255.775 200.052 255.971 199.811 256.174L198.867 252.827L201.168 250.925C201.168 250.925 200.75 249.263 200.42 247.171C200.09 245.079 199.818 242.378 200.198 240.628C200.236 240.445 199.729 239.684 199.133 238.321C198.392 236.609 197.888 234.805 197.637 232.957C197.185 229.415 197.416 225.819 198.315 222.363C198.804 220.349 199.44 218.374 200.217 216.454C202.068 211.813 211.433 209.632 222.331 212.466C223.643 212.8 224.796 213.583 225.59 214.679C231.087 222.071 224.277 243.653 224.277 243.653Z" fill="#BFBFBF"/>
<path opacity="0.2" d="M197.63 232.97C197.179 229.427 197.409 225.831 198.309 222.376L200.617 221.64C200.617 221.64 202.119 225.951 197.63 232.97Z" fill="black"/>
<path opacity="0.2" d="M200.42 247.184C200.071 245.016 199.818 242.391 200.198 240.641C200.236 240.457 199.729 239.696 199.133 238.333C199.133 238.333 204.452 242.505 206.551 242.137C207.819 241.909 203.806 244.832 200.42 247.184Z" fill="black"/>
<path opacity="0.2" d="M224.277 243.653C224.277 243.653 227.447 248.566 226.319 249.682C226.319 249.682 213.576 245.136 200.528 255.584C203.026 252.414 206.868 248.75 211.585 247.659C220.309 245.65 223.713 245.935 223.713 245.935L220.886 242.27C220.886 242.27 211.376 242.27 206.551 235.049C209.052 235.874 211.659 236.332 214.292 236.406C217.842 236.482 222.033 233.509 223.307 232.532C222.223 233.242 218.869 234.536 213.29 228.969C206.392 222.071 206.05 209.22 220.886 212.815C222.532 213.227 224.114 213.867 225.584 214.717C231.087 222.071 224.277 243.653 224.277 243.653Z" fill="black"/>
<path d="M224.277 243.653C224.277 243.653 227.447 248.566 226.319 249.682C226.319 249.682 213.576 245.136 200.528 255.584C200.287 255.775 200.052 255.971 199.811 256.174L198.867 252.827L201.168 250.925C201.168 250.925 200.75 249.263 200.42 247.171C200.09 245.079 199.818 242.378 200.198 240.628C200.236 240.445 199.729 239.684 199.133 238.321C198.392 236.609 197.888 234.805 197.637 232.957C197.185 229.415 197.416 225.819 198.315 222.363C198.804 220.349 199.44 218.374 200.217 216.454C202.068 211.813 211.433 209.632 222.331 212.466C223.643 212.8 224.796 213.583 225.59 214.679C231.087 222.071 224.277 243.653 224.277 243.653Z" stroke="#263238" stroke-linecap="round" stroke-linejoin="round"/>
<path d="M224.956 265.507C225.07 269.906 218.686 274.421 215.053 274.078C215.053 274.078 208.985 278.516 201.967 280.184" stroke="white" stroke-linecap="round" stroke-linejoin="round"/>
<path d="M186.973 280.963C186.973 280.963 195.412 280.063 198.524 281.566C201.637 283.068 217.126 285.313 219.687 284.869" stroke="white" stroke-linecap="round" stroke-linejoin="round"/>
<path d="M213.975 256.174C213.975 256.174 218.109 255.305 221.196 256.174C221.196 256.174 221.646 260.802 221.196 263.364L217.684 265.164C216.425 264.78 215.187 264.329 213.975 263.814C213.747 263.586 213.772 258.85 213.461 257.949" stroke="white" stroke-linecap="round" stroke-linejoin="round"/>
<path d="M231.575 264.568L230.681 265.164L228.487 263.211C228.563 261.107 226.756 256.593 226.756 256.593C227.579 256.481 228.416 256.611 229.166 256.967" stroke="white" stroke-linecap="round" stroke-linejoin="round"/>
<path d="M223.384 272.842C224.16 273.324 225.025 273.645 225.928 273.786C226.831 273.928 227.753 273.887 228.639 273.666" stroke="white" stroke-linecap="round" stroke-linejoin="round"/>
<path d="M222.471 280.184C222.471 280.184 219.041 282.542 213.461 281.261" stroke="white" stroke-linecap="round" stroke-linejoin="round"/>
<path d="M213.461 273.59C213.461 273.59 208.256 271.878 207.052 269.463" stroke="white" stroke-linecap="round" stroke-linejoin="round"/>
<path d="M203.666 272.385C204.047 272.69 207.052 273.59 210.253 273.59" stroke="white" stroke-linecap="round" stroke-linejoin="round"/>
<path d="M185.699 278.256C185.699 278.256 188.323 278.89 189.002 279.835" stroke="white" stroke-linecap="round" stroke-linejoin="round"/>
<path d="M218.261 286.15C218.261 286.15 215.725 287.804 215.776 289.985" stroke="white" stroke-linecap="round" stroke-linejoin="round"/>
<path d="M238.428 286.238C238.568 282.605 241.922 284.114 241.922 284.114C241.922 284.114 244.375 280.507 246.753 281.35C249.13 282.193 249.745 283.442 253.524 284.774C257.303 286.105 262.438 285.059 263.833 288.654C265.228 292.249 263.446 294.265 254.919 293.605C246.391 292.946 244.141 292.673 244.141 292.673C244.141 292.673 238.143 293.542 238.428 286.238Z" fill="#1D458A" stroke="#263238" stroke-linecap="round" stroke-linejoin="round"/>
<path d="M241.744 285.471C241.674 286.241 241.794 287.016 242.092 287.728C242.39 288.441 242.859 289.07 243.456 289.56" stroke="#263238" stroke-linecap="round" stroke-linejoin="round"/>
<path d="M245.219 281.35C243.405 282.073 243.177 286.238 247.374 288.895C251.571 291.551 252.408 289.282 255.058 291.507C257.708 293.732 261.867 294.043 264.264 292.318C266.66 290.594 264.701 287.246 260.232 285.471C255.762 283.696 254.329 285.471 251.869 284.114C249.409 282.758 249.08 279.81 245.219 281.35Z" fill="#BFBFBF" stroke="#263238" stroke-linecap="round" stroke-linejoin="round"/>
<path d="M246.67 282.13C246.531 282.586 246.67 286.784 246.67 286.784" stroke="#263238" stroke-linecap="round" stroke-linejoin="round"/>
<path d="M248.782 282.352V288.654" stroke="#263238" stroke-linecap="round" stroke-linejoin="round"/>
<path d="M251.007 284.114V289.453" stroke="#263238" stroke-linecap="round" stroke-linejoin="round"/>
<path d="M253.454 285.471L253.169 289.56" stroke="#263238" stroke-linecap="round" stroke-linejoin="round"/>
<path d="M256.174 285.503V291.203" stroke="#263238" stroke-linecap="round" stroke-linejoin="round"/>
<path d="M258.837 286.08V292.318" stroke="#263238" stroke-linecap="round" stroke-linejoin="round"/>
<path d="M261.836 287.177L262.115 291.9" stroke="#263238" stroke-linecap="round" stroke-linejoin="round"/>
<path d="M230.218 282.954C227.863 283.415 225.614 284.309 223.586 285.592C223.586 285.592 222.249 283.62 220.993 285.541C219.738 287.462 220.651 294.208 223.586 292.857C223.586 292.857 227.777 294.239 236.235 293.396C244.692 292.553 236.653 287.899 236.653 287.899L230.218 282.954Z" fill="#1D458A" stroke="#263238" stroke-linecap="round" stroke-linejoin="round"/>
<path d="M230.992 282.999C227.701 282.327 225.85 287.937 227.403 290.607C228.956 293.276 230.269 293.295 236.127 293.295C241.985 293.295 247.831 293.504 247.469 287.887C247.108 282.269 239.1 283.696 237.192 284.406C235.284 285.116 232.748 283.36 230.992 282.999Z" fill="#BFBFBF" stroke="#263238" stroke-linecap="round" stroke-linejoin="round"/>
<path d="M229.945 284.241L230.275 291.792" stroke="#263238" stroke-linecap="round" stroke-linejoin="round"/>
<path d="M232.393 284.945L232.811 291.792" stroke="#263238" stroke-linecap="round" stroke-linejoin="round"/>
<path d="M234.491 285.294L234.91 292.141" stroke="#263238" stroke-linecap="round" stroke-linejoin="round"/>
<path d="M236.996 285.712L237.636 292.141" stroke="#263238" stroke-linecap="round" stroke-linejoin="round"/>
<path d="M239.519 284.945L240.109 292.141" stroke="#263238" stroke-linecap="round" stroke-linejoin="round"/>
<path d="M242.106 284.945L242.942 291.792" stroke="#263238" stroke-linecap="round" stroke-linejoin="round"/>
<path d="M244.623 285.294L245.32 290.67" stroke="#263238" stroke-linecap="round" stroke-linejoin="round"/>
<path d="M223.098 286.688C223.098 286.688 222.464 289.675 223.447 291.374" stroke="#263238" stroke-linecap="round" stroke-linejoin="round"/>
<path d="M205.784 210.647C205.15 210.767 200.781 210.913 198.943 211.528C194.27 213.075 182.389 223.105 182.389 223.105L174.223 208.687C174.223 208.687 170.666 208.053 168.91 211.223L169.842 213.905C169.543 215.065 169.319 216.242 169.17 217.43C168.955 220.321 175.2 235.373 178.236 236.26C182.991 237.649 196.071 227.758 196.071 227.758C196.071 227.758 201.555 224.1 202.113 220.689" fill="#BFBFBF"/>
<path d="M205.784 210.647C205.15 210.767 200.781 210.913 198.943 211.528C194.27 213.075 182.389 223.105 182.389 223.105L174.223 208.687C174.223 208.687 170.666 208.053 168.91 211.223L169.842 213.905C169.543 215.065 169.319 216.242 169.17 217.43C168.955 220.321 175.2 235.373 178.236 236.26C182.991 237.649 196.071 227.758 196.071 227.758C196.071 227.758 201.555 224.1 202.113 220.689" stroke="#263238" stroke-linecap="round" stroke-linejoin="round"/>
<path d="M200.483 187.296C203.622 181.204 209.359 183.327 209.359 183.327C220.531 181.204 220.873 194.213 221.887 201.079C222.902 207.946 226.598 209.518 227.644 215.275C227.809 216.66 227.783 218.062 227.568 219.44C227.428 218.829 227.067 218.291 226.554 217.931C226.769 225.374 222.363 229.064 222.084 229.28C225.203 224.994 224.823 222.217 224.823 222.217C223.618 226.579 218.952 230.871 218.952 230.871C218.952 230.871 214.97 229.971 213.1 224.17C211.445 219.009 209.245 217.196 209.112 217.113C210.626 220.075 211.743 223.224 212.434 226.477C210.247 223.262 208.275 219.905 206.532 216.429C198.765 201.612 199.71 195.443 199.71 195.443" fill="#1D458A"/>
<path opacity="0.2" d="M200.483 187.296C203.622 181.204 209.359 183.327 209.359 183.327C220.531 181.204 220.873 194.213 221.887 201.079C222.902 207.946 226.598 209.518 227.644 215.275C227.809 216.66 227.783 218.062 227.568 219.44C227.428 218.829 227.067 218.291 226.554 217.931C226.769 225.374 222.363 229.064 222.084 229.28C225.203 224.994 224.823 222.217 224.823 222.217C223.618 226.579 218.952 230.871 218.952 230.871C218.952 230.871 214.97 229.971 213.1 224.17C211.445 219.009 209.245 217.196 209.112 217.113C210.626 220.075 211.743 223.224 212.434 226.477C210.247 223.262 208.275 219.905 206.532 216.429C198.765 201.612 199.71 195.443 199.71 195.443" fill="black"/>
<path d="M200.483 187.296C203.622 181.204 209.359 183.327 209.359 183.327C220.531 181.204 220.873 194.213 221.887 201.079C222.902 207.946 226.598 209.518 227.644 215.275C227.809 216.66 227.783 218.062 227.568 219.44C227.428 218.829 227.067 218.291 226.554 217.931C226.769 225.374 222.363 229.064 222.084 229.28C225.203 224.994 224.823 222.217 224.823 222.217C223.618 226.579 218.952 230.871 218.952 230.871C218.952 230.871 214.97 229.971 213.1 224.17C211.445 219.009 209.245 217.196 209.112 217.113C210.626 220.075 211.743 223.224 212.434 226.477C210.247 223.262 208.275 219.905 206.532 216.429C198.765 201.612 199.71 195.443 199.71 195.443" stroke="#263238" stroke-linecap="round" stroke-linejoin="round"/>
<path d="M210.171 184.538C210.171 184.538 215.877 180.849 217.995 191.867C220.112 202.886 221.83 204.015 222.883 209.429C223.935 214.844 222.813 219.212 221.228 220.841" stroke="#263238" stroke-linecap="round" stroke-linejoin="round"/>
<path d="M210.925 186.339C212.885 190.029 214.387 194.993 214.989 204.167C215.592 213.341 215.389 222.813 219.047 225.603" stroke="#263238" stroke-linecap="round" stroke-linejoin="round"/>
<path d="M204.782 185.286C204.782 185.286 199.818 187.772 203.432 195.215C207.045 202.658 210.951 208.605 210.951 212.891C210.951 217.177 212.117 219.427 214.336 220.188" stroke="#263238" stroke-linecap="round" stroke-linejoin="round"/>
<path d="M188.501 192.02C188.501 192.02 187.081 194.277 186.998 194.942" stroke="#263238" stroke-linecap="round" stroke-linejoin="round"/>
<path d="M182.389 223.105C182.389 223.105 178.623 224.626 179.086 227.866" stroke="#263238" stroke-linecap="round" stroke-linejoin="round"/>
<path d="M178.154 222.534C178.154 222.534 179.549 221.107 180.69 221.646" stroke="#263238" stroke-linecap="round" stroke-linejoin="round"/>
<path d="M171.529 212.073C171.529 212.073 173.868 210.323 175.143 210.494" stroke="#263238" stroke-linecap="round" stroke-linejoin="round"/>
<path d="M191.76 203.292C190.276 203.65 188.9 204.359 187.746 205.359" stroke="#263238" stroke-linecap="round" stroke-linejoin="round"/>
<path d="M203.127 224.081C203.007 224.081 200.103 226.319 198.106 226.205" stroke="#263238" stroke-linecap="round" stroke-linejoin="round"/>
<path d="M205.663 233.692C205.663 234.491 213.271 243.481 221.627 242.131" stroke="#263238" stroke-linecap="round" stroke-linejoin="round"/>
<path d="M97.3064 150.892C97.3064 150.892 103.9 154.423 105.358 157.555C106.816 160.687 112.123 176.842 112.123 176.842C112.123 176.842 116.149 183.467 117.087 184.811C118.025 186.155 117.62 191.785 112.973 191.747C108.325 191.709 102.955 187.277 102.752 185.274C102.55 183.27 100.159 182.104 99.9755 180.373C99.7917 178.642 94.2061 167.218 94.2061 167.218L97.3064 150.892Z" fill="#263238"/>
<path d="M104.743 284.501C104.743 284.501 103.748 290.613 104.743 293.466H124.955C124.955 293.466 125.811 291.323 124.955 289.979C124.099 288.635 117.696 287.861 115.705 286.036C114.177 284.518 112.796 282.86 111.578 281.084L104.743 284.501Z" fill="white" stroke="#263238" stroke-linecap="round" stroke-linejoin="round"/>
<path d="M125.335 292.388H104.483L104.299 293.466H125.335V292.388Z" fill="white" stroke="#263238" stroke-linecap="round" stroke-linejoin="round"/>
<path d="M109.606 283.759C109.606 283.759 111.508 284.216 111.717 284.292C111.926 284.368 113.784 287.208 115.635 287.703C117.487 288.197 119.332 288.109 119.046 289.009" stroke="#263238" stroke-linecap="round" stroke-linejoin="round"/>
<path d="M113.816 283.759L111.647 285.357" stroke="#263238" stroke-linecap="round" stroke-linejoin="round"/>
<path d="M114.817 285.161L112.732 286.688" stroke="#263238" stroke-linecap="round" stroke-linejoin="round"/>
<path d="M116.149 286.384L114.342 288.134" stroke="#263238" stroke-linecap="round" stroke-linejoin="round"/>
<path d="M117.981 287.272L117.195 289.009" stroke="#263238" stroke-linecap="round" stroke-linejoin="round"/>
<path d="M70.4945 293.466C70.4945 293.466 69.7147 290.493 70.6276 289.389C72.2633 287.411 70.4247 285.75 72.0668 285.065L72.7579 285.864C72.891 285.053 72.5043 282.587 75.5538 282.27C79.231 281.883 79.3007 284.558 79.4973 285.44L79.4402 284.21C81.0062 284.21 80.1947 285.776 82.5722 288.337C83.1963 289.027 83.6711 289.839 83.9668 290.722C84.2624 291.605 84.3726 292.539 84.2903 293.466H70.4945Z" fill="white" stroke="#263238" stroke-linecap="round" stroke-linejoin="round"/>
<path d="M57.1615 180.354C55.4687 181.324 51.0814 190.676 53.6428 209.22C56.2041 227.765 63.8565 263.934 65.1435 269.45C66.4305 274.966 70.9256 288.312 70.9256 288.312C70.9256 288.312 72.6437 282.529 80.9048 285.623C80.9753 285.648 81.0512 285.654 81.1247 285.64C81.1982 285.626 81.2668 285.593 81.3234 285.544C81.38 285.495 81.4227 285.432 81.4472 285.362C81.4716 285.291 81.477 285.215 81.4627 285.142L79.6494 275.701C79.6494 275.701 79.5226 268.797 78.9267 267.066C76.6887 260.549 75.5728 235.366 74.831 231.847C74.0893 228.329 75.5475 218.223 75.5475 218.223C75.5475 218.223 85.888 242.949 86.224 245.396C86.5601 247.843 92.862 257.937 92.862 257.937L93.9525 267.225C93.9525 267.225 102.34 281.604 103.818 285.896L113.816 283.734L113.537 276.627L110.842 275.701L106.138 259.541C104.65 253.94 102.823 248.435 100.667 243.057C98.4412 237.433 92.1329 215.668 92.1329 215.668C90.1739 213.538 88.3289 201.758 88.3289 201.758L85.2984 186.903L57.1615 180.354Z" fill="#1D458A"/>
<path opacity="0.2" d="M86.7502 194.048C81.6782 196.756 70.6086 201.961 65.5873 198.715C61.3712 195.988 56.6035 191.608 53.6935 188.78C54.6698 183.638 56.2802 180.868 57.1615 180.354L85.2984 186.922L86.7502 194.048Z" fill="black"/>
<path opacity="0.2" d="M113.816 283.759L103.818 285.934C102.34 281.642 93.9525 267.263 93.9525 267.263L92.862 257.975C92.862 257.975 86.56 247.85 86.224 245.421C85.888 242.993 75.5474 218.248 75.5474 218.248C75.5474 218.248 75.3002 219.979 75.0529 222.268C75.129 221.082 75.6869 213.113 75.3636 210.659L75.6172 209.176C75.6172 209.176 82.4263 204.256 83.3393 206.132C84.2523 208.009 79.7699 209.936 79.7699 209.936C79.7699 209.936 83.9099 211.204 85.9197 211.268C87.9295 211.331 85.4632 216.257 84.5185 216.815C83.5739 217.373 79.922 216.815 79.922 216.815C79.922 216.815 87.7583 236.171 95.0303 242.904C97.0823 244.8 99.5259 246.222 102.188 247.07C104.857 254.38 106.138 259.566 106.138 259.566L110.842 275.727L113.537 276.652L113.816 283.759Z" fill="black"/>
<path d="M57.1615 180.354C55.4687 181.324 51.0814 190.676 53.6428 209.22C56.2041 227.765 63.8565 263.934 65.1435 269.45C66.4305 274.966 70.9256 288.312 70.9256 288.312C70.9256 288.312 72.6437 282.529 80.9048 285.623C80.9753 285.648 81.0512 285.654 81.1247 285.64C81.1982 285.626 81.2668 285.593 81.3234 285.544C81.38 285.495 81.4227 285.432 81.4472 285.362C81.4716 285.291 81.477 285.215 81.4627 285.142L79.6494 275.701C79.6494 275.701 79.5226 268.797 78.9267 267.066C76.6887 260.549 75.5728 235.366 74.831 231.847C74.0893 228.329 75.5475 218.223 75.5475 218.223C75.5475 218.223 85.888 242.949 86.224 245.396C86.5601 247.843 92.862 257.937 92.862 257.937L93.9525 267.225C93.9525 267.225 102.34 281.604 103.818 285.896L113.816 283.734L113.537 276.627L110.842 275.701L106.138 259.541C104.65 253.94 102.823 248.435 100.667 243.057C98.4412 237.433 92.1329 215.668 92.1329 215.668C90.1739 213.538 88.3289 201.758 88.3289 201.758L85.2984 186.903L57.1615 180.354Z" stroke="#263238" stroke-linecap="round" stroke-linejoin="round"/>
<path d="M98.27 167.452C94.8147 174.299 89.394 182.858 89.394 182.858L87.0039 192.4C87.0039 192.4 78.0264 197.941 67.7303 195.621C55.6843 192.895 53.7062 186.745 53.7062 186.745L56.9523 175.998C58.5182 168.822 61.9228 155.121 68.9983 151.272C76.0737 147.424 88.2021 147.069 93.0903 148.635C97.4458 150.036 99.855 151.095 101.047 152.388C101.047 152.388 102.809 158.437 102.423 160.446C102.036 162.456 98.27 167.452 98.27 167.452Z" fill="#263238"/>
<path d="M84.303 292.388H70.1838L70.4945 293.466H84.2903L84.303 292.388Z" fill="white" stroke="#263238" stroke-linecap="round" stroke-linejoin="round"/>
<path d="M79.7699 288.21C79.7699 288.21 75.1417 286.682 72.9037 288.597" stroke="#263238" stroke-linecap="round" stroke-linejoin="round"/>
<path d="M79.7699 287.202C79.7699 287.202 75.6996 285.934 72.9037 287.633" stroke="#263238" stroke-linecap="round" stroke-linejoin="round"/>
<path d="M79.5353 286.2C79.5353 286.2 75.7313 284.755 72.9037 286.733" stroke="#263238" stroke-linecap="round" stroke-linejoin="round"/>
<g opacity="0.96">
<path opacity="0.96" d="M78.9267 207.901C78.3751 208.028 67.7176 211.915 65.6127 215.801" stroke="#263238" stroke-linecap="round" stroke-linejoin="round"/>
<path opacity="0.96" d="M76.34 213.544C76.8725 214.298 81.412 228.468 83.314 232.355C85.216 236.241 91.7779 253.676 93.2804 254.678C93.2804 254.678 95.2902 264.822 96.5392 266.464C97.7882 268.106 104.28 281.084 104.28 281.084" stroke="#263238" stroke-linecap="round" stroke-linejoin="round"/>
<path opacity="0.96" d="M111.578 281.084L103.71 282.77" stroke="#263238" stroke-linecap="round" stroke-linejoin="round"/>
<path opacity="0.96" d="M79.5354 281.927C79.5354 281.927 73.2334 281.363 71.1031 283.759" stroke="#263238" stroke-linecap="round" stroke-linejoin="round"/>
<path opacity="0.96" d="M72.276 215.173C71.7498 218.185 63.8501 234.865 61.9672 232.982" stroke="#263238" stroke-linecap="round" stroke-linejoin="round"/>
<path opacity="0.96" d="M75.3192 216.682C75.3192 216.682 76.2449 212.542 75.3636 210.659C75.0339 209.943 82.141 212.415 84.5185 211.851" stroke="#263238" stroke-linecap="round" stroke-linejoin="round"/>
<path opacity="0.96" d="M76.34 196.185C76.34 196.185 75.072 199.748 74.793 200.877C74.5141 202.005 77.0564 206.399 76.34 207.274" stroke="#263238" stroke-linecap="round" stroke-linejoin="round"/>
<path opacity="0.96" d="M59.0635 192.85C59.0635 192.85 57.3073 195.538 57.3073 197.523C57.3073 199.507 54.9235 200.376 54.9235 200.376" stroke="#263238" stroke-linecap="round" stroke-linejoin="round"/>
<path opacity="0.96" d="M55.3229 189.915C54.0042 195.825 53.8685 201.938 54.9234 207.901C56.6796 217.811 59.5643 237.997 60.6928 243.139C61.8214 248.281 64.4588 259.82 64.4588 261.449C64.4588 263.078 67.1026 272.36 67.1026 272.36" stroke="#263238" stroke-linecap="round" stroke-linejoin="round"/>
<path opacity="0.96" d="M66.4623 258.317C66.8363 258.317 73.8611 265.088 75.6172 265.215" stroke="#263238" stroke-linecap="round" stroke-linejoin="round"/>
<path opacity="0.96" d="M97.1859 254.177C97.5663 254.304 103.456 257.188 103.71 256.307" stroke="#263238" stroke-linecap="round" stroke-linejoin="round"/>
</g>
<path d="M89.9329 147.443C89.9329 147.443 82.7687 148.159 82.5151 152.141C82.2615 156.123 85.609 160.63 91.2136 160.884C96.8181 161.137 97.5029 155.641 97.6994 152.642C97.8959 149.643 93.832 147.208 89.9329 147.443Z" fill="#BFBFBF" stroke="#263238" stroke-linecap="round" stroke-linejoin="round"/>
<path d="M87.6442 149.865C86.488 146.626 86.3072 143.119 87.1243 139.778C88.1197 135.6 93.0966 129.856 100.641 135.08C104.534 137.775 104.769 143.614 103.558 148.965C103.272 150.233 103.488 151.501 103.063 152.661C101.573 156.782 98.8406 159.952 97.3571 160.022C94.8654 160.142 89.8886 157.131 90.0914 154.506" fill="#BFBFBF"/>
<path d="M87.6442 149.865C86.488 146.626 86.3072 143.119 87.1243 139.778C88.1197 135.6 93.0966 129.856 100.641 135.08C104.534 137.775 104.769 143.614 103.558 148.965C103.272 150.233 103.488 151.501 103.063 152.661C101.573 156.782 98.8406 159.952 97.3571 160.022C94.8654 160.142 89.8886 157.131 90.0914 154.506" stroke="#263238" stroke-linecap="round" stroke-linejoin="round"/>
<path d="M97.6994 147.202C97.0423 147.013 96.3534 146.96 95.6752 147.048C94.997 147.135 94.3438 147.36 93.7559 147.709" stroke="#263238" stroke-linecap="round" stroke-linejoin="round"/>
<path d="M101.497 147.088C101.497 147.088 103.019 146.327 104.033 146.524" stroke="#263238" stroke-linecap="round" stroke-linejoin="round"/>
<path d="M95.2776 150.879C95.5087 150.879 95.696 150.578 95.696 150.207C95.696 149.836 95.5087 149.535 95.2776 149.535C95.0465 149.535 94.8591 149.836 94.8591 150.207C94.8591 150.578 95.0465 150.879 95.2776 150.879Z" fill="#263238"/>
<path d="M101.497 150.505C101.728 150.505 101.916 150.204 101.916 149.833C101.916 149.462 101.728 149.161 101.497 149.161C101.266 149.161 101.079 149.462 101.079 149.833C101.079 150.204 101.266 150.505 101.497 150.505Z" fill="#263238"/>
<path d="M92.862 142.086L92.6591 145.167C92.6591 145.167 90.4782 146.289 89.9329 147.443C89.6039 148.194 89.4834 149.02 89.5842 149.833C89.5842 149.833 88.2592 147.519 87.5491 147.709C87.2892 147.773 87.2891 148.743 87.2891 148.743C87.2891 148.743 84.322 142.086 87.0039 138.567C89.6857 135.048 92.862 142.086 92.862 142.086Z" fill="#263238"/>
<path d="M88.6522 149.161C88.6522 149.161 88.0563 146.93 86.0465 146.334C84.0367 145.738 85.4125 151.095 87.1243 151.805C88.8361 152.515 89.2672 152.997 89.3687 152.363" fill="#BFBFBF"/>
<path d="M88.6522 149.161C88.6522 149.161 88.0563 146.93 86.0465 146.334C84.0367 145.738 85.4125 151.095 87.1243 151.805C88.8361 152.515 89.2672 152.997 89.3687 152.363" stroke="#263238" stroke-linecap="round" stroke-linejoin="round"/>
<path d="M100.033 150.207C99.9414 150.955 100.104 151.712 100.495 152.357C100.629 152.548 100.699 152.776 100.694 153.01C100.69 153.243 100.612 153.469 100.471 153.655C100.33 153.841 100.134 153.978 99.9101 154.045C99.6867 154.113 99.4477 154.107 99.2274 154.03" stroke="#263238" stroke-linecap="round" stroke-linejoin="round"/>
<path d="M99.2401 155.907C98.0895 156.214 96.8783 156.214 95.7277 155.907" stroke="#263238" stroke-linecap="round" stroke-linejoin="round"/>
<path d="M92.862 142.086C92.862 142.086 97.9847 143.322 101.104 142.91C104.223 142.498 106.176 141.065 105.7 137.787C105.225 134.509 101.522 132.994 95.4424 131.954C89.4637 130.934 83.1998 135.41 86.0465 140.875C88.8932 146.34 92.862 142.086 92.862 142.086Z" fill="#263238"/>
<path d="M99.6521 190.771C99.824 191.111 99.9152 191.486 99.9184 191.867C99.9818 192.654 97.1605 193.592 96.6597 193.281C96.1588 192.971 94.9732 191.379 96.349 190.46C97.7248 189.541 99.6521 190.771 99.6521 190.771Z" fill="#BFBFBF" stroke="#263238" stroke-linecap="round" stroke-linejoin="round"/>
<path d="M107.07 189.915C107.193 190.789 107.437 191.643 107.793 192.451C108.23 193.174 110.963 192.451 111.711 192.837C112.459 193.224 112.522 191.899 111.711 191.233C110.899 190.568 109.86 189.091 107.07 189.915Z" fill="#BFBFBF" stroke="#263238" stroke-linecap="round" stroke-linejoin="round"/>
<path d="M105.358 189.522H102.137V240.4H105.358V189.522Z" fill="#BFBFBF" stroke="#263238" stroke-linecap="round" stroke-linejoin="round"/>
<path d="M101.079 226.338H106.417C106.726 226.338 107.023 226.461 107.242 226.68C107.461 226.898 107.584 227.195 107.584 227.505V293.441H99.9185V227.505C99.9185 227.196 100.04 226.901 100.258 226.682C100.475 226.463 100.77 226.34 101.079 226.338Z" fill="#757575" stroke="#263238" stroke-linecap="round" stroke-linejoin="round"/>
<path d="M113.074 186.016H94.4216C94.0349 186.016 93.664 186.169 93.3905 186.443C93.1171 186.716 92.9634 187.087 92.9634 187.474V188.457C92.9634 188.843 93.1171 189.214 93.3905 189.488C93.664 189.761 94.0349 189.915 94.4216 189.915H101.307V192.85H106.195V189.915H113.074C113.265 189.915 113.455 189.877 113.632 189.804C113.809 189.73 113.97 189.623 114.105 189.488C114.24 189.352 114.348 189.191 114.421 189.015C114.494 188.838 114.532 188.648 114.532 188.457V187.474C114.532 187.282 114.494 187.093 114.421 186.916C114.348 186.739 114.24 186.578 114.105 186.443C113.97 186.307 113.809 186.2 113.632 186.127C113.455 186.053 113.265 186.016 113.074 186.016Z" fill="#1D458A" stroke="#263238" stroke-linecap="round" stroke-linejoin="round"/>
<path d="M86.6235 184.418C86.6235 184.418 96.5075 183.08 97.4839 182.915C98.4603 182.751 101.497 187.93 101.497 187.93L99.2401 191.405C99.2401 191.405 90.6177 192.609 90.1041 192.108C89.7711 191.721 89.5285 191.264 89.3941 190.771C89.3941 190.771 84.9561 192.444 84.544 189.433C84.1319 186.421 83.8149 185.978 86.6235 184.418Z" fill="#BFBFBF" stroke="#263238" stroke-linecap="round" stroke-linejoin="round"/>
<path d="M106.734 186.016C106.734 186.016 108.243 183.334 109.745 183.334C111.248 183.334 117.017 184.336 117.689 185.172C118.362 186.009 119.947 187.347 119.693 188.431C119.439 189.515 117.854 191.785 116.352 191.405C114.849 191.024 111.001 191.449 111.001 191.449C111.001 191.449 108.909 191.062 108.744 189.915L110.5 189.433C110.5 189.433 110.747 187.011 110.411 186.675C110.075 186.339 106.734 186.016 106.734 186.016Z" fill="#BFBFBF" stroke="#263238" stroke-linecap="round" stroke-linejoin="round"/>
<path d="M112.123 191.348C112.123 191.348 113.955 189.35 113.816 188.596C113.676 187.842 113.404 185.502 112.953 185.255" stroke="#263238" stroke-linecap="round" stroke-linejoin="round"/>
<path d="M114.659 191.246C114.659 191.246 116.016 190.688 116.016 189.433C115.98 188.424 115.865 187.419 115.673 186.428" stroke="#263238" stroke-linecap="round" stroke-linejoin="round"/>
<path d="M117.087 191.392C117.552 190.888 117.858 190.258 117.965 189.581C118.072 188.904 117.976 188.211 117.689 187.588" stroke="#263238" stroke-linecap="round" stroke-linejoin="round"/>
<path d="M97.636 191.468C97.636 191.468 99.2084 189.357 98.9548 188.298C98.6068 187.246 98.1654 186.228 97.636 185.255" stroke="#263238" stroke-linecap="round" stroke-linejoin="round"/>
<path d="M95.5375 191.867C95.5375 191.867 96.4124 189.331 96.349 188.837C96.2856 188.342 95.081 185.883 95.0303 185.629" stroke="#263238" stroke-linecap="round" stroke-linejoin="round"/>
<path d="M92.9635 192.102C93.5277 191.183 94.8655 190.834 93.8384 188.812C92.8113 186.789 92.3358 186.402 92.3358 186.402" stroke="#263238" stroke-linecap="round" stroke-linejoin="round"/>
<path d="M89.394 190.771C89.8505 190.333 90.7318 189.274 90.7318 189.274C90.7318 189.274 90.9156 190.143 91.296 190.397" stroke="#263238" stroke-linecap="round" stroke-linejoin="round"/>
<path d="M93.7053 292.116H114.12C114.394 292.116 114.657 292.224 114.851 292.418C115.045 292.612 115.153 292.875 115.153 293.149V293.726H92.9191V292.908C92.9183 292.804 92.938 292.701 92.9771 292.605C93.0162 292.509 93.074 292.422 93.1471 292.348C93.2202 292.274 93.3071 292.216 93.4029 292.176C93.4987 292.136 93.6015 292.116 93.7053 292.116Z" fill="#263238"/>
<path d="M62.8611 161.461C60.3251 167.744 57.377 175.092 56.9522 181.926C56.7937 184.462 59.2346 185.356 61.2951 186.288C65.3415 188.103 69.5834 189.445 73.9371 190.289C75.465 190.587 77.1071 190.574 78.5653 190.923C80.22 191.335 82.5468 192.787 84.2713 191.848" stroke="white" stroke-linecap="round" stroke-linejoin="round"/>
<path d="M74.7677 164.84L71.4518 171.973L69.3216 176.252C70.1158 177.054 71.1432 177.584 72.257 177.767C72.7692 177.837 73.2604 178.016 73.6978 178.292C74.1352 178.567 74.5086 178.933 74.793 179.365C74.793 179.365 83.1428 182.972 84.2713 182.934C85.3999 182.896 86.3128 181.812 87.2385 183.359" stroke="white" stroke-linecap="round" stroke-linejoin="round"/>
<path d="M69.3215 176.252C69.3215 176.252 64.8075 174.743 63.1781 176.252" stroke="white" stroke-linecap="round" stroke-linejoin="round"/>
<path d="M70.076 154.062C70.4501 153.764 75.0403 158.779 75.3192 162.545" stroke="white" stroke-linecap="round" stroke-linejoin="round"/>
<path d="M76.4668 164.84C76.4668 164.84 75.2368 167.376 73.2207 168.169" stroke="white" stroke-linecap="round" stroke-linejoin="round"/>
<path d="M101.922 165.316C101.922 165.316 99.3859 169.665 96.7611 170.388" stroke="white" stroke-linecap="round" stroke-linejoin="round"/>
<path d="M102.524 180.354C102.524 180.354 106.068 177.628 108.446 177.742" stroke="white" stroke-linecap="round" stroke-linejoin="round"/>
<path d="M101.497 169.278C101.497 169.278 99.2971 171.079 97.6614 170.407" stroke="white" stroke-linecap="round" stroke-linejoin="round"/>
<path d="M105.409 289.022C123.218 289.022 120.34 293.46 138.497 293.46C156.655 293.46 167.661 293.726 167.661 198.626" stroke="#263238" stroke-width="3" stroke-linecap="round" stroke-linejoin="round"/>
</svg>
